<?xml version="1.0"?>
<!DOCTYPE svg PUBLIC '-//W3C//DTD SVG 1.0//EN'
    'http://www.w3.org/TR/2001/REC-SVG-20010904/DTD/svg10.dtd' >

<svg fill-opacity="1" xmlns:xlink="http://www.w3.org/1999/xlink"
     color-rendering="auto" color-interpolation="auto" text-rendering="auto"
     stroke="black" stroke-linecap="square" width="293" stroke-miterlimit="10"
     shape-rendering="auto" stroke-opacity="1" fill="black"
     stroke-dasharray="none" font-weight="normal" stroke-width="1" height="186"
     xmlns="http://www.w3.org/2000/svg" font-family="&apos;Dialog&apos;"
     font-style="normal" stroke-linejoin="miter" font-size="12"
     stroke-dashoffset="0" image-rendering="auto">
    <!-- Generated by TreeGraph 2.15.0-887 beta with Apache Batik SVG Generator
    <http://treegraph.bioinfweb.info/> -->
    <defs id="genericDefs"/>
    <g>
        <g fill="white" text-rendering="optimizeQuality"
           shape-rendering="geometricPrecision" stroke="white">
            <rect x="0" width="293" height="186" y="0" stroke="none"/>
            <path fill="black"
                  d="M5 82.8425 L18 82.8425 L18 83.6929 L5 83.6929 Z"
                  stroke="none"/>
        </g>
        <g text-rendering="optimizeQuality" stroke-width="0.8504"
           shape-rendering="geometricPrecision" stroke-linecap="butt"
           stroke-linejoin="bevel">
            <path fill="none"
                  d="M21 24.378 L20.6929 24.378 L20.2677 24.378 C18.7022 24.378 17.4331 25.6471 17.4331 27.2126 L17.4331 28.063 L17.4331 137.6221 L17.4331 138.4724 C17.4331 140.038 18.7022 141.3071 20.2677 141.3071 L20.6929 141.3071 L21 141.3071"/>
            <path d="M20.6929 23.9528 L108 23.9528 L108 24.8032 L20.6929 24.8032 Z"
                  stroke-width="1" stroke-linecap="square" stroke="none"
                  stroke-linejoin="miter"/>
        </g>
        <g font-size="9.7405" text-rendering="optimizeQuality"
           shape-rendering="geometricPrecision">
            <text x="49.9231" xml:space="preserve" y="18.7795" stroke="none">0.998</text><path fill="none"
                  d="M111 15.0236 L110.7234 15.0236 L110.2982 15.0236 C108.7326 15.0236 107.4635 16.2927 107.4635 17.8583 L107.4635 18.7087 L107.4635 30.0472 L107.4635 30.8976 C107.4635 32.4632 108.7326 33.7323 110.2982 33.7323 L110.7234 33.7323 L111 33.7323"
                  stroke-width="0.8504" stroke-linecap="butt"
                  stroke-linejoin="bevel"/>
            <path d="M110.7234 14.5984 L122.0619 14.5984 L122.0619 15.4488 L110.7234 15.4488 Z"
                  stroke="none"/>
            <text x="124.8966" xml:space="preserve" font-size="14.6108"
                  y="20.5197" stroke="none">C hook1 apterous</text><path d="M110.7234 33.3071 L122.0619 33.3071 L122.0619 34.1575 L110.7234 34.1575 Z"
                  stroke="none"/>
            <text x="124.8966" xml:space="preserve" font-size="14.6108"
                  y="39.2283" stroke="none">M ext1 apterous</text><path d="M17 73.063 L55 73.063 L55 73.9134 L17 73.9134 Z"
                  stroke="none"/>
            <text x="22.1102" xml:space="preserve" y="67.8898" stroke="none">0.917</text><path fill="none"
                  d="M58 52.4409 L57.9324 52.4409 L57.5072 52.4409 C55.9416 52.4409 54.6725 53.7101 54.6725 55.2756 L54.6725 56.126 L54.6725 90.8504 L54.6725 91.7008 C54.6725 93.2663 55.9416 94.5354 57.5072 94.5354 L57.9324 94.5354 L58 94.5354"
                  stroke-width="0.8504" stroke-linecap="butt"
                  stroke-linejoin="bevel"/>
            <path d="M57.9324 52.0158 L122.0619 52.0158 L122.0619 52.8661 L57.9324 52.8661 Z"
                  stroke="none"/>
            <text x="124.8966" xml:space="preserve" font-size="14.6108"
                  y="57.937" stroke="none">F exs1 polyphenic</text><path d="M57.9324 94.1102 L92 94.1102 L92 94.9606 L57.9324 94.9606 Z"
                  stroke="none"/>
            <text x="60.767" xml:space="preserve" y="88.937" stroke="none">0.024</text><path fill="none"
                  d="M96 80.5039 L95.1718 80.5039 L94.7466 80.5039 C93.1811 80.5039 91.9119 81.773 91.9119 83.3386 L91.9119 84.189 L91.9119 104.8819 L91.9119 105.7323 C91.9119 107.2978 93.1811 108.5669 94.7466 108.5669 L95.1718 108.5669 L96 108.5669"
                  stroke-width="0.8504" stroke-linecap="butt"
                  stroke-linejoin="bevel"/>
            <path d="M95.1718 80.0787 L108 80.0787 L108 80.9291 L95.1718 80.9291 Z"
                  stroke="none"/>
            <text x="98.0064" xml:space="preserve" y="74.9055" stroke="none">1</text><path fill="none"
                  d="M111 71.1496 L110.7234 71.1496 L110.2982 71.1496 C108.7326 71.1496 107.4635 72.4187 107.4635 73.9843 L107.4635 74.8346 L107.4635 86.1732 L107.4635 87.0236 C107.4635 88.5892 108.7326 89.8583 110.2982 89.8583 L110.7234 89.8583 L111 89.8583"
                  stroke-width="0.8504" stroke-linecap="butt"
                  stroke-linejoin="bevel"/>
            <path d="M110.7234 70.7244 L122.0619 70.7244 L122.0619 71.5748 L110.7234 71.5748 Z"
                  stroke="none"/>
            <text x="124.8966" xml:space="preserve" font-size="14.6108"
                  y="76.6457" stroke="none">D mel1 macropterous</text><path d="M110.7234 89.4331 L122.0619 89.4331 L122.0619 90.2835 L110.7234 90.2835 Z"
                  stroke="none"/>
            <text x="124.8966" xml:space="preserve" font-size="14.6108"
                  y="95.3543" stroke="none">D sim1 macropterous</text><path d="M95.1718 108.1417 L122.0619 108.1417 L122.0619 108.9921 L95.1718 108.9921 Z"
                  stroke="none"/>
            <text x="124.8966" xml:space="preserve" font-size="14.6108"
                  y="114.063" stroke="none">A pis1 polyphenic</text><path d="M20.6929 140.8819 L70 140.8819 L70 141.7323 L20.6929 141.7323 Z"
                  stroke="none"/>
            <text x="31.3033" xml:space="preserve" y="135.7087" stroke="none">0.921</text><path fill="none"
                  d="M74 127.2756 L73.4839 127.2756 L73.0587 127.2756 C71.4932 127.2756 70.2241 128.5447 70.2241 130.1102 L70.2241 130.9606 L70.2241 151.6535 L70.2241 152.5039 C70.2241 154.0695 71.4932 155.3386 73.0587 155.3386 L73.4839 155.3386 L74 155.3386"
                  stroke-width="0.8504" stroke-linecap="butt"
                  stroke-linejoin="bevel"/>
            <path d="M73.4839 126.8504 L122.0619 126.8504 L122.0619 127.7008 L73.4839 127.7008 Z"
                  stroke="none"/>
            <text x="124.8966" xml:space="preserve" font-size="14.6108"
                  y="132.7717" stroke="none">N lug1 polyphenic</text><path d="M73.4839 154.9134 L108 154.9134 L108 155.7638 L73.4839 155.7638 Z"
                  stroke="none"/>
            <text x="76.3186" xml:space="preserve" y="149.7402" stroke="none">0.887</text><path fill="none"
                  d="M111 145.9843 L110.7234 145.9843 L110.2982 145.9843 C108.7326 145.9843 107.4635 147.2534 107.4635 148.8189 L107.4635 149.6693 L107.4635 161.0079 L107.4635 161.8583 C107.4635 163.4238 108.7326 164.6929 110.2982 164.6929 L110.7234 164.6929 L111 164.6929"
                  stroke-width="0.8504" stroke-linecap="butt"
                  stroke-linejoin="bevel"/>
            <path d="M110.7234 145.5591 L122.0619 145.5591 L122.0619 146.4095 L110.7234 146.4095 Z"
                  stroke="none"/>
            <text x="124.8966" xml:space="preserve" font-size="14.6108"
                  y="151.4803" stroke="none">C lec1 apterous</text><path d="M110.7234 164.2677 L122.0619 164.2677 L122.0619 165.1181 L110.7234 165.1181 Z"
                  stroke="none"/>
            <text x="124.8966" xml:space="preserve" font-size="14.6108"
                  y="170.189" stroke="none">G bue1+4 polyphenic</text>
        </g>
    </g>
</svg>
